:SAMPLES-PER-SECOND 30
:FULLY-SPECIFIED
:DEGREES
1981
root  -2.94642 33.9759 0.639632 -21.0639 -65.2013 26.3456
RightUpLeg  -43.861 -22.3626 -12.6081
RightLeg  62.4657 -1.48646 -3.65554
RightFoot  -19.1242 -0.0859318 0.639121
RightToes  -1.81608e-008 0 -3.6325e-017
Spine  24.6852 -1.53731 -4.47247
Spine1  -6.05624 -2.20727 -1.40785
HEad  -33.6371 -9.0605 -3.72385
LeftShoulder1  -0.340301 4.67821 -22.5785
LeftArm  -10.4034 -11.3596 -47.2355
LeftForeArm  28.034 -74.9605 -45.9244
LeftHand  -0.0245244 5.16992 -4.06084
RightShoulder  -0.310699 -4.59648 21.3447
RightArm  -14.5755 -0.357258 33.4312
RightForeArm  49.5451 78.3487 85.523
RightHand  -0.100899 1.06401 -1.91657
LeftUpLeg  -9.78008 15.5314 21.5628
LeftLeg  6.74634 -8.31573 0.33814
LeftFoot  4.88289 3.15663 -22.1317
LeftToes  1.81866e-011 -6.13092e-011 2.52013e-011
1982
root  -3.42001 33.8936 0.408805 -23.03 -65.3888 27.6833
RightUpLeg  -42.9148 -21.1335 -12.9312
RightLeg  63.6062 -1.74135 -4.41073
RightFoot  -20.3873 -0.101814 0.462275
RightToes  -1.81608e-008 0 -3.6325e-017
Spine  24.5483 -2.02425 -3.31545
Spine1  -4.82725 -2.60471 -0.529557
HEad  -34.134 -7.32726 -5.03888
LeftShoulder1  -0.234376 4.32418 -22.1626
LeftArm  -11.0775 -10.9359 -47.8566
LeftForeArm  26.8852 -74.7441 -45.1451
LeftHand  -0.0178734 4.98361 -3.9839
RightShoulder  -0.271444 -4.4747 20.7396
RightArm  -14.4152 1.16208 32.2913
RightForeArm  54.4979 78.3461 91.4671
RightHand  -0.12006 1.98884 -2.06492
LeftUpLeg  -9.9355 15.1591 21.8838
LeftLeg  9.82652 -7.10339 -0.180031
LeftFoot  5.05361 2.60404 -18.164
LeftToes  1.81866e-011 -6.13092e-011 2.52013e-011
1983
root  -3.81288 33.8376 0.218077 -25.5702 -65.8162 29.4784
RightUpLeg  -41.9385 -19.8041 -13.3276
RightLeg  64.5029 -1.89665 -4.95193
RightFoot  -21.3513 -0.127029 0.192733
RightToes  -1.81608e-008 0 -3.6325e-017
Spine  25.0287 -2.31924 -2.56353
Spine1  -4.15095 -2.93378 0.492881
HEad  -34.7057 -6.0619 -5.96239
LeftShoulder1  -0.144867 4.01789 -21.7334
LeftArm  -11.5079 -10.7563 -47.9111
LeftForeArm  25.7339 -74.5668 -44.6016
LeftHand  -0.0128812 4.80491 -3.34586
RightShoulder  -0.24162 -4.38947 20.001
RightArm  -14.4273 1.86776 31.5685
RightForeArm  60.5692 78.2194 97.9968
RightHand  -0.0971566 2.00116 -1.70505
LeftUpLeg  -9.77287 15.2613 22.08
LeftLeg  12.3836 -4.62704 -0.466475
LeftFoot  4.54608 2.64543 -18.9987
LeftToes  1.81866e-011 -6.13092e-011 2.52013e-011
1984
root  -4.19588 33.944 0.0402427 -29.0092 -66.2849 32.5209
RightUpLeg  -40.8408 -18.539 -14.0037
RightLeg  64.4415 -1.98065 -5.12958
RightFoot  -22.1724 -0.118604 0.335858
RightToes  -1.81608e-008 0 -3.6325e-017
Spine  25.2065 -2.26543 -2.6763
Spine1  -3.54904 -3.05142 1.35022
HEad  -34.7629 -5.28958 -5.98145
LeftShoulder1  -0.0588214 3.7166 -21.2236
LeftArm  -11.5689 -10.9099 -47.912
LeftForeArm  24.0915 -74.1979 -43.3224
LeftHand  -0.0282937 5.26301 -4.05367
RightShoulder  -0.26116 -4.46062 20.0578
RightArm  -14.1886 2.31612 30.3242
RightForeArm  66.4834 77.8907 105.048
RightHand  -0.154984 1.56342 -2.73648
LeftUpLeg  -9.36746 15.2377 21.289
LeftLeg  13.0496 -4.54131 -0.639423
LeftFoot  3.87262 2.3759 -17.8448
LeftToes  1.81866e-011 -6.13092e-011 2.52013e-011
1985
root  -4.58397 34.1441 -0.0684627 -31.6766 -66.87 35.0306
RightUpLeg  -39.7017 -17.5362 -14.3346
RightLeg  63.7252 -2.02643 -5.06361
RightFoot  -22.5979 -0.143572 0.0933
RightToes  -1.81608e-008 0 -3.6325e-017
Spine  24.9808 -2.45719 -2.31318
Spine1  -3.20303 -3.21293 1.5015
HEad  -34.2833 -4.13005 -6.27168
LeftShoulder1  -0.0234117 3.58948 -20.926
LeftArm  -11.6724 -10.8078 -47.8242
LeftForeArm  22.7896 -73.8598 -42.1843
LeftHand  -0.0314077 5.33321 -4.24589
RightShoulder  -0.222274 -4.3224 19.8039
RightArm  -14.1477 2.13415 30.0628
RightForeArm  71.5948 77.6149 109.585
RightHand  -0.161636 1.27789 -2.93833
LeftUpLeg  -8.99277 15.2965 20.4401
LeftLeg  12.1221 -4.46003 -0.566256
LeftFoot  3.18565 2.19966 -17.2993
LeftToes  1.81866e-011 -6.13092e-011 2.52013e-011
1986
root  -4.95806 34.4284 -0.123852 -33.8563 -67.107 37.2742
RightUpLeg  -38.4273 -17.1513 -14.8184
RightLeg  62.5194 -1.95715 -4.64629
RightFoot  -23.0034 -0.12444 0.30764
RightToes  -1.81608e-008 0 -3.6325e-017
Spine  24.5854 -2.8235 -2.16539
Spine1  -3.19968 -3.58534 1.59101
HEad  -33.7459 -3.02805 -6.4165
LeftShoulder1  -0.00195548 3.51084 -21.0596
LeftArm  -11.733 -10.4401 -47.7107
LeftForeArm  22.3396 -73.714 -41.6939
LeftHand  -0.0433635 5.62068 -4.10476
RightShoulder  -0.230803 -4.35661 19.7349
RightArm  -13.9326 2.02655 29.8854
RightForeArm  74.6195 77.3758 112.537
RightHand  -0.132071 1.14815 -2.46373
LeftUpLeg  -9.21382 14.9676 19.1261
LeftLeg  10.8438 -3.86155 -0.369048
LeftFoot  2.40569 2.06583 -17.1525
LeftToes  1.81866e-011 -6.13092e-011 2.52013e-011
1987
root  -5.32346 34.7336 -0.205833 -36.2673 -67.8649 39.8654
RightUpLeg  -37.3841 -16.1904 -14.8882
RightLeg  61.0627 -1.94201 -4.33087
RightFoot  -23.062 -0.131719 0.237899
RightToes  -1.81608e-008 0 -3.6325e-017
Spine  24.017 -2.72766 -2.47994
Spine1  -3.12299 -3.59575 1.93044
HEad  -33.5576 -2.34052 -6.75623
LeftShoulder1  -0.0223155 3.58393 -21.404
LeftArm  -11.5827 -10.4704 -47.3054
LeftForeArm  21.772 -73.5408 -41.1382
LeftHand  -0.0445441 5.64003 -4.16809
RightShoulder  -0.256219 -4.45099 19.8069
RightArm  -13.5645 2.01117 29.8647
RightForeArm  75.6068 77.2446 113.828
RightHand  -0.150855 1.26022 -2.76887
LeftUpLeg  -9.63207 15.1309 18.2024
LeftLeg  9.80637 -3.32287 -0.448005
LeftFoot  1.87328 1.99942 -17.248
LeftToes  1.81866e-011 -6.13092e-011 2.52013e-011
